<?xml version="1.0" encoding="UTF-8"?>
<svg width="24px" height="24px" viewBox="0 0 24 24" version="1.1" xmlns="http://www.w3.org/2000/svg" xmlns:xlink="http://www.w3.org/1999/xlink">
    <title>if_Instagram_Color_1435162</title>
    <defs>
        <radialGradient cx="29.0083849%" cy="99.7910355%" fx="29.0083849%" fy="99.7910355%" r="100.892117%" gradientTransform="translate(0.290084,0.997910),scale(1.000000,0.996154),translate(-0.290084,-0.997910)" id="radialGradient-1">
            <stop stop-color="#FFD776" offset="0%"></stop>
            <stop stop-color="#F3A554" offset="24.63%"></stop>
            <stop stop-color="#F15C3C" offset="37.93%"></stop>
            <stop stop-color="#D94867" offset="53.94%"></stop>
            <stop stop-color="#C32F87" offset="69.95%"></stop>
            <stop stop-color="#7D63A7" offset="91.22%"></stop>
            <stop stop-color="#5C6CB3" offset="98.52%"></stop>
        </radialGradient>
        <radialGradient cx="29.0632331%" cy="99.751203%" fx="29.0632331%" fy="99.751203%" r="100.814135%" gradientTransform="translate(0.290632,0.997512),scale(1.000000,0.996154),translate(-0.290632,-0.997512)" id="radialGradient-2">
            <stop stop-color="#FFD776" offset="0%"></stop>
            <stop stop-color="#F3A554" offset="24.63%"></stop>
            <stop stop-color="#F15C3C" offset="37.93%"></stop>
            <stop stop-color="#D94867" offset="60.7%"></stop>
            <stop stop-color="#C32F87" offset="83.46%"></stop>
            <stop stop-color="#7D63A7" offset="95.77%"></stop>
            <stop stop-color="#5C6CB3" offset="100%"></stop>
        </radialGradient>
        <radialGradient cx="29.1041935%" cy="99.7754839%" fx="29.1041935%" fy="99.7754839%" r="101.074194%" gradientTransform="translate(0.291042,0.997755),scale(1.000000,0.996154),translate(-0.291042,-0.997755)" id="radialGradient-3">
            <stop stop-color="#5F6DB3" offset="0%"></stop>
            <stop stop-color="#5C6CB3" offset="100%"></stop>
        </radialGradient>
    </defs>
    <g id="06-Symbols" stroke="none" stroke-width="1" fill="none" fill-rule="evenodd">
        <g id="Footer-#10" transform="translate(-420.000000, -291.000000)" fill-rule="nonzero">
            <g id="if_Instagram_Color_1435162" transform="translate(420.000000, 291.000000)">
                <path d="M23.3261538,4.14208494 C23.0215385,3.35444015 22.6153846,2.68725869 21.9507692,2.02007722 C21.2861538,1.35289575 20.6215385,0.945173745 19.8369231,0.639382239 C19.08,0.342857143 18.2030769,0.138996139 16.9384615,0.0833976834 C15.6646154,0.0277992278 15.2584615,0.00926640927 12.0092308,0.00926640927 C8.76,0.00926640927 8.35384615,0.0185328185 7.08,0.0833976834 C5.80615385,0.138996139 4.93846154,0.342857143 4.18153846,0.639382239 C3.39692308,0.945173745 2.73230769,1.35289575 2.06769231,2.02007722 C1.40307692,2.68725869 0.996923077,3.35444015 0.692307692,4.14208494 C0.396923077,4.9019305 0.193846154,5.78223938 0.138461538,7.05173745 C0.0830769231,8.33050193 0.0646153846,8.73822394 0.0646153846,12 C0.0646153846,15.2617761 0.0738461538,15.6694981 0.138461538,16.9482625 C0.193846154,18.227027 0.396923077,19.0980695 0.692307692,19.8579151 C0.996923077,20.6455598 1.40307692,21.3127413 2.06769231,21.9799228 C2.73230769,22.6471042 3.39692308,23.0548263 4.18153846,23.3606178 C4.93846154,23.6571429 5.81538462,23.8610039 7.08,23.9166023 C8.35384615,23.9722008 8.76,23.9907336 12.0092308,23.9907336 C15.2584615,23.9907336 15.6646154,23.9814672 16.9384615,23.9166023 C18.2123077,23.8610039 19.08,23.6571429 19.8369231,23.3606178 C20.6215385,23.0548263 21.2861538,22.6471042 21.9507692,21.9799228 C22.6153846,21.3127413 23.0215385,20.6455598 23.3261538,19.8579151 C23.6215385,19.0980695 23.8246154,18.2177606 23.88,16.9482625 C23.9353846,15.6694981 23.9538462,15.2617761 23.9538462,12 C23.9538462,8.73822394 23.9446154,8.33050193 23.88,7.05173745 C23.8246154,5.77297297 23.6215385,4.9019305 23.3261538,4.14208494 Z M21.7292308,16.846332 C21.6738462,18.0138996 21.48,18.6532819 21.3138462,19.0702703 C21.1015385,19.6262548 20.8338462,20.0339768 20.4184615,20.4509653 C20.0030769,20.8679537 19.6061538,21.1274131 19.0430769,21.3498069 C18.6184615,21.5166023 17.9907692,21.7111969 16.8276923,21.7667954 C15.5630769,21.8223938 15.1938462,21.8409266 12,21.8409266 C8.80615385,21.8409266 8.42769231,21.8316602 7.17230769,21.7667954 C6.00923077,21.7111969 5.37230769,21.5166023 4.95692308,21.3498069 C4.40307692,21.1366795 3.99692308,20.8679537 3.58153846,20.4509653 C3.16615385,20.0339768 2.90769231,19.6355212 2.68615385,19.0702703 C2.52,18.6440154 2.32615385,18.0138996 2.27076923,16.846332 C2.21538462,15.576834 2.19692308,15.1969112 2.19692308,12 C2.19692308,8.8030888 2.20615385,8.41389961 2.27076923,7.15366795 C2.32615385,5.98610039 2.52,5.34671815 2.68615385,4.92972973 C2.89846154,4.37374517 3.16615385,3.96602317 3.58153846,3.54903475 C3.99692308,3.13204633 4.39384615,2.87258687 4.95692308,2.65019305 C5.38153846,2.48339768 6.00923077,2.28880309 7.17230769,2.23320463 C8.43692308,2.17760618 8.81538462,2.15907336 12,2.15907336 C15.1846154,2.15907336 15.5723077,2.16833977 16.8276923,2.23320463 C17.9907692,2.28880309 18.6276923,2.48339768 19.0430769,2.65019305 C19.5969231,2.86332046 20.0030769,3.13204633 20.4184615,3.54903475 C20.8338462,3.96602317 21.0923077,4.36447876 21.3138462,4.92972973 C21.48,5.35598456 21.6738462,5.98610039 21.7292308,7.15366795 C21.7846154,8.42316602 21.8030769,8.8030888 21.8030769,12 C21.8030769,15.1969112 21.7846154,15.5861004 21.7292308,16.846332 Z" id="XMLID_142_" fill="url(#radialGradient-1)"></path>
                <path d="M12,5.83783784 C8.61230769,5.83783784 5.86153846,8.5992278 5.86153846,12 C5.86153846,15.4007722 8.61230769,18.1621622 12,18.1621622 C15.3876923,18.1621622 18.1384615,15.4007722 18.1384615,12 C18.1384615,8.5992278 15.3876923,5.83783784 12,5.83783784 Z M12,16.0030888 C9.80307692,16.0030888 8.01230769,14.2146718 8.01230769,12 C8.01230769,9.79459459 9.79384615,7.9969112 12,7.9969112 C14.2061538,7.9969112 15.9876923,9.78532819 15.9876923,12 C15.9876923,14.2054054 14.1969231,16.0030888 12,16.0030888 Z" id="XMLID_145_" fill="url(#radialGradient-2)"></path>
                <ellipse id="XMLID_143_" fill="url(#radialGradient-3)" cx="18.3784615" cy="5.5969112" rx="1.43076923" ry="1.43629344"></ellipse>
            </g>
        </g>
    </g>
</svg>