<?xml version="1.0" encoding="UTF-8"?>
<svg width="420px" height="387px" viewBox="0 0 420 387" version="1.1" xmlns="http://www.w3.org/2000/svg" xmlns:xlink="http://www.w3.org/1999/xlink">
    <title>Rapport2020PurpleLinesCMYK</title>
    <defs>
        <polygon id="path-1" points="0 0 420 0 420 387 0 387"></polygon>
    </defs>
    <g id="01-Layouts" stroke="none" stroke-width="1" fill="none" fill-rule="evenodd">
        <g id="Home" transform="translate(-960.000000, -1947.000000)">
            <g id="Rapport2020PurpleLinesCMYK" transform="translate(960.000000, 1947.000000)">
                <mask id="mask-2" fill="white">
                    <use xlink:href="#path-1"></use>
                </mask>
                <g id="Clip-2"></g>
                <path d="M411.297782,282.701767 C398.557345,315.754038 364.493061,344.113188 315.379094,362.554527 C268.547342,380.13993 210.911752,387.247873 157.247835,382.055134 C100.721495,376.587412 54.5095325,347.864199 27.1248801,301.178932 C13.5957073,278.115155 5.48438214,251.595685 3.66652625,224.486549 C1.83032768,197.099524 6.47778295,169.697008 17.1078473,145.239915 C31.9055612,111.191313 56.3273883,84.5391923 86.9905529,68.4904056 C59.2496665,94.8268761 41.8048147,129.440938 38.0744933,166.876488 C33.3961451,213.822215 50.80045,259.529546 87.0803355,295.578559 C122.059822,330.333017 155.412602,351.910526 189.047281,361.541735 C202.065755,365.268539 215.078436,367.12952 228.069879,367.128552 C259.710998,367.126616 291.190894,356.0866 322.051001,334.097583 C337.854666,322.836806 351.714007,308.063208 363.244794,290.189265 C382.498813,260.340942 394.092351,223.618994 396.665152,185.834874 C398.444392,188.95071 400.114541,192.077198 401.674634,195.211432 C417.654968,227.324497 420.981751,257.577549 411.297782,282.701767 Z M395.191946,183.334845 C392.973447,221.682489 381.38184,259.049293 361.870058,289.297504 C350.45319,306.997161 336.736728,321.618744 321.102009,332.75849 C277.996717,363.47243 233.718458,372.624354 189.497159,359.961546 C156.134724,350.408766 123.010745,328.966813 88.233028,294.411814 C52.3103419,258.717183 35.0749828,213.483326 39.7040954,167.039154 C43.5792274,128.155099 62.4132957,92.3384669 92.3002754,65.8441713 C96.7643039,63.7333807 101.348043,61.8346373 106.048595,60.1702111 C123.435523,54.0159977 142.108368,50.9427639 161.974454,50.9427639 C190.958781,50.9427639 222.48212,57.4862149 256.249059,70.5537519 C288.560168,83.0587341 319.259053,101.568819 345.025688,124.084565 C365.722986,142.169587 382.852151,162.449637 395.191946,183.334845 Z M111.504093,51.1180177 C138.317227,33.4415984 164.721994,20.3130615 189.982757,12.0974383 C211.382869,5.13570215 232.00197,1.6422468 251.567815,1.6422468 C259.806573,1.6422468 267.860939,2.26192846 275.703882,3.50419653 C297.566423,6.96569954 317.659378,15.3904653 333.808658,27.8683365 C368.793937,54.899044 390.452777,98.53722 394.795165,150.742495 C395.53563,159.630085 395.743192,168.557374 395.45164,177.449806 C383.166873,157.755548 366.743418,138.70421 347.176608,121.606806 C321.12711,98.8431878 290.092265,80.12977 257.426852,67.4892325 C199.768093,45.1748833 148.469416,41.6698089 104.958654,57.0737393 C103.716179,57.513326 102.481427,57.969373 101.254398,58.4399438 C104.560907,55.8934394 107.973611,53.4447286 111.504093,51.1180177 Z M404.605601,193.743561 C402.305043,189.121123 399.759273,184.514177 396.994355,179.939184 C397.414306,170.178229 397.240533,160.367894 396.427663,150.605003 C392.045694,97.9349669 370.16288,53.8843153 334.809782,26.567005 C318.442321,13.9216262 298.092568,5.38551131 275.959714,1.88140519 C249.235398,-2.34889038 220.138119,0.562645161 189.477851,10.5346786 C164.077104,18.7958097 137.541042,31.9882512 110.604337,49.7450355 C105.436529,53.1513481 100.502349,56.7977874 95.8143463,60.66402 C59.6338973,76.1976963 30.8339626,105.43602 14.1044752,143.927933 C3.26684896,168.863342 -1.4723197,196.796461 0.398633416,224.706342 C2.25027845,252.322842 10.5160682,279.341931 24.3010732,302.845294 C52.2331096,350.460084 99.3361404,379.752629 156.934079,385.324923 C168.539202,386.447128 180.327751,387 192.155882,387 C235.511214,387 279.381106,379.579312 316.527925,365.630665 C366.529099,346.856248 401.27013,317.824162 414.353286,283.886909 C424.379008,257.876739 421.008782,226.705784 404.605601,193.743561 L404.605601,193.743561 Z" id="Fill-1" fill="#7B4A8C" mask="url(#mask-2)"></path>
            </g>
        </g>
    </g>
</svg>