<?xml version="1.0" encoding="UTF-8"?>
<svg width="23px" height="18px" viewBox="0 0 23 18" version="1.1" xmlns="http://www.w3.org/2000/svg" xmlns:xlink="http://www.w3.org/1999/xlink">
    <title>icon_twitter</title>
    <g id="06-Symbols" stroke="none" stroke-width="1" fill="none" fill-rule="evenodd">
        <g id="Footer-#10" transform="translate(-610.000000, -293.000000)" fill="#55ACEE" fill-rule="nonzero">
            <g id="Links" transform="translate(420.000000, 291.000000)">
                <g id="icon_twitter" transform="translate(190.880000, 2.000000)">
                    <path d="M21.12,2.13934426 C20.3525581,2.50819672 19.5153488,2.7295082 18.6781395,2.87704918 C19.5851163,2.28688525 20.2130233,1.40163934 20.5618605,0.368852459 C19.7246512,0.885245902 18.8176744,1.25409836 17.8409302,1.47540984 C17.0037209,0.516393443 15.8874419,0 14.7013953,0 C12.3293023,0 10.375814,2.06557377 10.375814,4.57377049 C10.375814,4.94262295 10.4455814,5.31147541 10.5153488,5.60655738 C6.9572093,5.3852459 3.74790698,3.6147541 1.65488372,0.81147541 C1.30604651,1.47540984 1.09674419,2.28688525 1.09674419,3.09836066 C1.09674419,4.64754098 1.86418605,6.04918033 2.98046512,6.86065574 C2.2827907,6.86065574 1.58511628,6.63934426 1.02697674,6.3442623 C1.02697674,6.3442623 1.02697674,6.41803279 1.02697674,6.41803279 C1.02697674,8.63114754 2.49209302,10.4754098 4.4455814,10.8442623 C4.09674419,10.9180328 3.67813953,10.9918033 3.32930233,10.9918033 C3.05023256,10.9918033 2.77116279,10.9918033 2.49209302,10.9180328 C3.05023256,12.6885246 4.65488372,14.0163934 6.46883721,14.0901639 C5.00372093,15.3442623 3.12,16.0081967 1.16651163,16.0081967 C0.817674419,16.0081967 0.468837209,16.0081967 0.12,15.9344262 C2.00372093,17.1885246 4.30604651,18 6.67813953,18 C14.5618605,18 18.8874419,11.0655738 18.8874419,5.09016393 C18.8874419,4.86885246 18.8874419,4.72131148 18.8874419,4.5 C19.7944186,3.83606557 20.5618605,3.02459016 21.12,2.13934426 Z" id="Path"></path>
                </g>
            </g>
        </g>
    </g>
</svg>