<?xml version="1.0" encoding="UTF-8"?>
<svg width="18px" height="16px" viewBox="0 0 18 16" version="1.1" xmlns="http://www.w3.org/2000/svg" xmlns:xlink="http://www.w3.org/1999/xlink">
    <title>linkedin-logo</title>
    <g id="06-Symbols" stroke="none" stroke-width="1" fill="none" fill-rule="evenodd">
        <g id="Footer-#10" transform="translate(-938.000000, -293.000000)" fill="#3A5998" fill-rule="nonzero">
            <g id="Links" transform="translate(420.000000, 291.000000)">
                <g id="linkedin-logo" transform="translate(518.500000, 2.000000)">
                    <path d="M16.4444444,9.8095873 L16.4444444,16 L13.0151264,16 L13.0151264,10.2241838 C13.0151264,8.77325171 12.5191125,7.78304728 11.277813,7.78304728 C10.3302383,7.78304728 9.76633593,8.4503725 9.51825459,9.09589734 C9.42778619,9.32666994 9.4044995,9.64787519 9.4044995,9.97091012 L9.4044995,16 L5.97402826,16 C5.97402826,16 6.02022964,6.21766317 5.97402826,5.20414013 L9.40416471,5.20414013 L9.40416471,6.73441005 C9.39720846,6.74585525 9.38816906,6.75819582 9.381622,6.76929066 L9.40416471,6.76929066 L9.40416471,6.73441005 C9.85989187,5.99985402 10.6737727,4.95051606 12.495491,4.95051606 C14.7524769,4.95051606 16.4444444,6.49351585 16.4444444,9.8095873 Z M2.38560929,0 C1.21204954,0 0.444444444,0.80556299 0.444444444,1.86490577 C0.444444444,2.9011635 1.18984163,3.73117406 2.34007749,3.73117406 L2.36299219,3.73117406 C3.55928064,3.73117406 4.30326425,2.90131921 4.30326425,1.86490577 C4.28072155,0.80556299 3.55928064,0 2.38560929,0 Z M0.648184357,16 L4.07735363,16 L4.07735363,5.20414013 L0.648184357,5.20414013 L0.648184357,16 Z" id="LinkedIn"></path>
                </g>
            </g>
        </g>
    </g>
</svg>