<?xml version="1.0" encoding="UTF-8"?>
<svg width="1536px" height="1529px" viewBox="0 0 1536 1529" version="1.1" xmlns="http://www.w3.org/2000/svg" xmlns:xlink="http://www.w3.org/1999/xlink">
    <title>Rapport2020GreenLinesCMYK</title>
    <g id="01-Layouts" stroke="none" stroke-width="1" fill="none" fill-rule="evenodd" opacity="0.200000003">
        <g id="Home" transform="translate(83.000000, -599.000000)" fill="#FFFFFF">
            <g id="Rapport2020GreenLinesCMYK" transform="translate(-83.000000, 599.000000)">
                <path d="M897.162113,1461.44119 C705.981917,1548.92552 504.800255,1542.90194 330.681589,1444.48829 C244.683934,1395.87956 169.651611,1326.16692 113.690359,1242.88699 C57.1493633,1158.74553 21.3475353,1062.50706 10.1545735,964.574017 C-8.5394865,800.993901 36.7907637,645.67307 137.797729,527.230656 C173.379041,485.507028 215.319748,448.632171 263.37088,416.613203 C244.06151,452.865054 225.769358,491.242247 208.586899,531.645101 C136.7485,700.561712 142.531708,886.199814 224.453376,1040.95816 C306.026486,1195.06146 453.131951,1300.00777 638.667651,1336.46611 C722.869169,1353.0096 799.992836,1361.29024 870.917161,1361.29024 C950.359803,1361.29024 1022.02392,1350.90206 1087.14726,1330.115 C1115.54046,1321.05115 1142.5501,1309.90824 1168.22598,1296.80374 C1084.8923,1361.35788 992.414324,1417.85566 897.162113,1461.44119 Z M380.656901,257.351411 C453.537415,165.338708 535.761403,97.8866969 625.045457,56.8679567 C689.25116,27.3694944 756.956663,12.0791378 822.574379,12.0791378 C832.227286,12.0791378 841.844626,12.4102212 851.387275,13.075948 C1012.8405,24.3363433 1167.28346,113.301655 1286.26247,263.592155 C1332.15112,321.553109 1370.24347,385.612405 1399.40848,452.640772 C1380.22715,436.033202 1359.14298,420.091358 1336.15598,404.918483 C1249.3794,347.648176 1140.52278,305.14134 1021.35526,281.983303 C896.738865,257.767935 763.707296,255.592753 636.643884,275.682039 C500.752721,297.173979 385.038766,336.2881 290.462329,392.433435 C318.595894,342.859927 348.721215,297.675944 380.656901,257.351411 Z M1525.90638,672.594065 C1544.33724,789.847427 1499.71122,927.136673 1399.76771,1063.43267 C1415.04377,1035.14818 1428.89715,1004.93059 1441.24604,972.70158 C1466.96105,905.594893 1479.49844,831.688535 1478.50612,753.03309 C1477.38576,664.2885 1459.03314,573.073246 1425.88106,485.763351 C1481.2768,542.382171 1515.38563,605.6725 1525.90638,672.594065 Z M1240.38093,1236.85273 C1193.93387,1272.71653 1141.60402,1300.05049 1083.48385,1318.6054 C962.203642,1357.32436 817.463389,1359.2895 640.993738,1324.61475 C459.096551,1288.87198 314.953824,1186.12577 235.116388,1035.30126 C154.905497,883.778989 149.282341,701.925206 219.690943,536.37639 C239.811243,489.074185 261.439588,444.570169 284.455049,403.074384 C379.99891,344.380062 498.08519,303.713766 637.586412,281.64866 C694.732047,272.613287 753.094078,268.102721 811.349407,268.102721 C881.910947,268.102721 952.315992,274.720829 1020.20644,287.914324 C1138.60216,310.91928 1246.71187,353.123512 1332.84112,409.963054 C1359.4453,427.521154 1383.4851,446.111665 1404.91071,465.577944 C1443.70017,558.89006 1465.23249,657.513751 1466.43821,753.186171 C1467.41275,830.303681 1455.1421,902.704143 1429.97839,968.372576 C1402.84426,1039.18882 1368.46867,1100.27549 1327.11482,1151.54357 C1300.22611,1180.82487 1271.1927,1209.36925 1240.38093,1236.85273 Z M1531.86742,671.654216 C1520.5393,599.606198 1482.50031,531.773263 1420.44997,471.832928 C1389.79114,395.135503 1347.70105,321.745351 1295.71976,256.091158 C1174.60316,103.10927 1017.10499,12.5241423 852.230214,1.02878454 C775.796548,-4.31127017 695.49674,11.2104889 620.012715,45.8888042 C528.985873,87.7085527 445.271625,156.331816 371.20317,249.850414 C334.860722,295.732164 300.851475,347.790577 269.452852,405.388408 C216.962948,439.112633 171.469089,478.440356 133.206018,523.307496 C31.1035868,643.042203 -14.7281593,799.993531 4.16151965,965.261104 C15.4611826,1064.14824 51.6044547,1161.31943 108.682513,1246.25834 C165.163045,1330.3108 240.903153,1400.67849 327.715294,1449.74647 C421.100234,1502.52757 522.14988,1529 625.319324,1529 C716.417299,1529 809.169144,1508.34467 899.669593,1466.93432 C1006.24636,1418.16538 1109.36957,1353.2944 1200.20079,1279.06764 C1269.93362,1236.95241 1328.55885,1178.60341 1375.71369,1104.46209 C1496.7876,954.783917 1552.24736,801.310744 1531.86742,671.654216 Z" id="Fill-1"></path>
            </g>
        </g>
    </g>
</svg>